<svg xmlns="http://www.w3.org/2000/svg" viewBox="0 0 1383.75 334.31"><defs><style>.cls-1{fill:#fc1114;}</style></defs><title>404animate</title><g id="Слой_2" data-name="Слой 2"><g id="_404page" data-name="404page"><ellipse id="_0" data-name="0" class="cls-1" cx="688.96" cy="131.8" rx="88.52" ry="88.82"/><path id="o" d="M689,.06c-72.52,0-131.3,59-131.3,131.73S616.44,263.54,689,263.54s131.3-59,131.3-131.75S761.48.06,689,.06Zm0,230.88c-54.59,0-98.82-44.39-98.82-99.15S634.37,32.65,689,32.65s98.8,44.39,98.8,99.14S743.54,230.94,689,230.94Z"/><polygon id="tr" points="691.82 326.47 687.3 334.31 696.33 334.31 691.82 326.47"/><path id="_4" data-name="4" d="M485.53,0h29.4V193.16h25.31v21.1H514.93V264H480.7V214.26H383.37V190.18ZM480.7,49,404.17,193.16H480.7Z"/><path id="_4-2" data-name="4" d="M938.8,0h29.4V193.16h25.32v21.1H968.2V264H934V214.26H836.64V190.18ZM934,49,857.44,193.16H934Z"/><rect x="517.47" y="292.14" width="3.74" height="10.01"/><rect x="527.06" y="292.14" width="3.74" height="10.01"/><rect x="546.22" y="292.14" width="3.74" height="17.51"/><rect x="498.31" y="292.14" width="3.74" height="17.51"/><rect x="488.72" y="292.14" width="3.74" height="10.01"/><rect x="479.14" y="292.14" width="3.74" height="10.01"/><rect x="469.56" y="292.14" width="3.74" height="10.01"/><rect x="459.97" y="292.14" width="3.74" height="10.01"/><rect x="450.39" y="292.14" width="3.74" height="17.51"/><rect x="440.81" y="292.14" width="3.74" height="10.01"/><rect x="431.22" y="292.14" width="3.74" height="10.01"/><rect x="421.64" y="292.14" width="3.74" height="10.01"/><rect x="412.05" y="292.14" width="3.74" height="10.01"/><rect x="402.47" y="292.14" width="3.74" height="17.51"/><rect x="507.89" y="292.14" width="3.74" height="10.01"/><rect x="536.64" y="292.14" width="3.74" height="10.01"/><rect x="555.8" y="292.14" width="3.74" height="10.01"/><rect x="574.97" y="292.14" width="3.74" height="10.01"/><rect x="776.22" y="292.14" width="3.74" height="10.01"/><rect x="785.81" y="292.14" width="3.74" height="17.51"/><rect x="804.97" y="292.14" width="3.74" height="10.01"/><rect x="565.39" y="292.14" width="3.74" height="10.01"/><rect x="757.05" y="292.14" width="3.74" height="10.01"/><rect x="747.47" y="292.14" width="3.74" height="10.01"/><rect x="737.89" y="292.14" width="3.74" height="17.51"/><rect x="728.3" y="292.14" width="3.74" height="10.01"/><rect x="718.72" y="292.14" width="3.74" height="10.01"/><rect x="709.14" y="292.14" width="3.74" height="10.01"/><rect x="699.55" y="292.14" width="3.74" height="10.01"/><rect x="689.97" y="292.14" width="3.74" height="17.51"/><rect x="680.39" y="292.14" width="3.74" height="10.01"/><rect x="670.8" y="292.14" width="3.74" height="10.01"/><rect x="661.22" y="292.14" width="3.74" height="10.01"/><rect x="651.64" y="292.14" width="3.74" height="10.01"/><rect x="642.06" y="292.14" width="3.74" height="17.51"/><rect x="632.47" y="292.14" width="3.74" height="10.01"/><rect x="622.89" y="292.14" width="3.74" height="10.01"/><rect x="613.3" y="292.14" width="3.74" height="10.01"/><rect x="603.72" y="292.14" width="3.74" height="10.01"/><rect x="594.14" y="292.14" width="3.74" height="17.51"/><rect x="584.56" y="292.14" width="3.74" height="10.01"/><rect x="766.64" y="292.14" width="3.74" height="10.01"/><rect x="795.39" y="292.14" width="3.74" height="10.01"/><rect x="814.55" y="292.14" width="3.74" height="10.01"/><rect x="833.72" y="292.14" width="3.74" height="17.51"/><rect x="824.14" y="292.14" width="3.74" height="10.01"/><rect x="977.47" y="292.14" width="3.74" height="17.51"/><rect x="967.89" y="292.14" width="3.74" height="10.01"/><rect x="958.3" y="292.14" width="3.74" height="10.01"/><rect x="948.72" y="292.14" width="3.74" height="10.01"/><rect x="939.14" y="292.14" width="3.74" height="10.01"/><rect x="929.55" y="292.14" width="3.74" height="17.51"/><rect x="919.97" y="292.14" width="3.74" height="10.01"/><rect x="910.39" y="292.14" width="3.74" height="10.01"/><rect x="900.8" y="292.14" width="3.74" height="10.01"/><rect x="891.22" y="292.14" width="3.74" height="10.01"/><rect x="881.63" y="292.14" width="3.74" height="17.51"/><rect x="872.05" y="292.14" width="3.74" height="10.01"/><rect x="862.47" y="292.14" width="3.74" height="10.01"/><rect x="852.89" y="292.14" width="3.74" height="10.01"/><rect x="843.31" y="292.14" width="3.74" height="10.01"/><rect x="517.47" y="292.14" width="3.74" height="10.01"/><rect x="527.06" y="292.14" width="3.74" height="10.01"/><rect x="546.22" y="292.14" width="3.74" height="17.51"/><rect x="498.31" y="292.14" width="3.74" height="17.51"/><rect x="488.72" y="292.14" width="3.74" height="10.01"/><rect x="479.14" y="292.14" width="3.74" height="10.01"/><rect x="469.56" y="292.14" width="3.74" height="10.01"/><rect x="459.97" y="292.14" width="3.74" height="10.01"/><rect x="450.39" y="292.14" width="3.74" height="17.51"/><rect x="440.81" y="292.14" width="3.74" height="10.01"/><rect x="431.22" y="292.14" width="3.74" height="10.01"/><rect x="421.64" y="292.14" width="3.74" height="10.01"/><rect x="412.05" y="292.14" width="3.74" height="10.01"/><rect x="402.47" y="292.14" width="3.74" height="17.51"/><rect x="392.89" y="292.14" width="3.74" height="10.01"/><rect x="383.31" y="292.14" width="3.74" height="10.01"/><rect x="373.73" y="292.14" width="3.74" height="10.01"/><rect x="364.15" y="292.14" width="3.74" height="10.01"/><rect x="354.56" y="292.14" width="3.74" height="17.51"/><rect x="344.98" y="292.14" width="3.74" height="10.01"/><rect x="335.39" y="292.14" width="3.74" height="10.01"/><rect x="325.81" y="292.14" width="3.74" height="10.01"/><rect x="316.23" y="292.14" width="3.74" height="10.01"/><rect x="306.65" y="292.14" width="3.74" height="17.51"/><rect x="383.31" y="292.14" width="3.74" height="10.01"/><rect x="373.73" y="292.14" width="3.74" height="10.01"/><rect x="364.15" y="292.14" width="3.74" height="10.01"/><rect x="354.56" y="292.14" width="3.74" height="17.51"/><rect x="344.98" y="292.14" width="3.74" height="10.01"/><rect x="335.39" y="292.14" width="3.74" height="10.01"/><rect x="325.81" y="292.14" width="3.74" height="10.01"/><rect x="316.23" y="292.14" width="3.74" height="10.01"/><rect x="306.65" y="292.14" width="3.74" height="17.51"/><rect x="507.89" y="292.14" width="3.74" height="10.01"/><rect x="536.64" y="292.14" width="3.74" height="10.01"/><rect x="555.8" y="292.14" width="3.74" height="10.01"/><rect x="574.97" y="292.14" width="3.74" height="10.01"/><rect x="776.22" y="292.14" width="3.74" height="10.01"/><rect x="785.81" y="292.14" width="3.74" height="17.51"/><rect x="804.97" y="292.14" width="3.74" height="10.01"/><rect x="565.39" y="292.14" width="3.74" height="10.01"/><rect x="757.05" y="292.14" width="3.74" height="10.01"/><rect x="747.47" y="292.14" width="3.74" height="10.01"/><rect x="737.89" y="292.14" width="3.74" height="17.51"/><rect x="728.3" y="292.14" width="3.74" height="10.01"/><rect x="718.72" y="292.14" width="3.74" height="10.01"/><rect x="709.14" y="292.14" width="3.74" height="10.01"/><rect x="699.55" y="292.14" width="3.74" height="10.01"/><rect x="689.97" y="292.14" width="3.74" height="17.51"/><rect x="680.39" y="292.14" width="3.74" height="10.01"/><rect x="670.8" y="292.14" width="3.74" height="10.01"/><rect x="661.22" y="292.14" width="3.74" height="10.01"/><rect x="651.64" y="292.14" width="3.74" height="10.01"/><rect x="642.06" y="292.14" width="3.74" height="17.51"/><rect x="632.47" y="292.14" width="3.74" height="10.01"/><rect x="622.89" y="292.14" width="3.74" height="10.01"/><rect x="613.3" y="292.14" width="3.74" height="10.01"/><rect x="603.72" y="292.14" width="3.74" height="10.01"/><rect x="594.14" y="292.14" width="3.74" height="17.51"/><rect x="584.56" y="292.14" width="3.74" height="10.01"/><rect x="134.16" y="292.14" width="3.74" height="10.01"/><rect x="143.74" y="292.14" width="3.74" height="10.01"/><rect x="162.91" y="292.14" width="3.74" height="17.51"/><rect x="114.99" y="292.14" width="3.74" height="17.51"/><rect x="105.41" y="292.14" width="3.74" height="10.01"/><rect x="95.83" y="292.14" width="3.74" height="10.01"/><rect x="86.24" y="292.14" width="3.74" height="10.01"/><rect x="76.66" y="292.14" width="3.74" height="10.01"/><rect x="67.08" y="292.14" width="3.74" height="17.51"/><rect x="57.49" y="292.14" width="3.74" height="10.01"/><rect x="47.91" y="292.14" width="3.74" height="10.01"/><rect x="38.33" y="292.14" width="3.74" height="10.01"/><rect x="28.74" y="292.14" width="3.74" height="10.01"/><rect x="19.16" y="292.14" width="3.74" height="17.51"/><rect x="124.58" y="292.14" width="3.74" height="10.01"/><rect x="153.33" y="292.14" width="3.74" height="10.01"/><rect x="172.49" y="292.14" width="3.74" height="10.01"/><rect x="191.66" y="292.14" width="3.74" height="10.01"/><rect x="182.08" y="292.14" width="3.74" height="10.01"/><rect x="297.08" y="292.14" width="3.74" height="10.01"/><rect x="287.49" y="292.14" width="3.74" height="10.01"/><rect x="277.91" y="292.14" width="3.74" height="10.01"/><rect x="268.33" y="292.14" width="3.74" height="10.01"/><rect x="258.74" y="292.14" width="3.74" height="17.51"/><rect x="249.16" y="292.14" width="3.74" height="10.01"/><rect x="239.58" y="292.14" width="3.74" height="10.01"/><rect x="229.99" y="292.14" width="3.74" height="10.01"/><rect x="220.41" y="292.14" width="3.74" height="10.01"/><rect x="210.82" y="292.14" width="3.74" height="17.51"/><rect x="201.24" y="292.14" width="3.74" height="10.01"/><rect x="134.16" y="292.14" width="3.74" height="10.01"/><rect x="143.74" y="292.14" width="3.74" height="10.01"/><rect x="162.91" y="292.14" width="3.74" height="17.51"/><rect x="114.99" y="292.14" width="3.74" height="17.51"/><rect x="105.41" y="292.14" width="3.74" height="10.01"/><rect x="95.83" y="292.14" width="3.74" height="10.01"/><rect x="86.24" y="292.14" width="3.74" height="10.01"/><rect x="76.66" y="292.14" width="3.74" height="10.01"/><rect x="67.08" y="292.14" width="3.74" height="17.51"/><rect x="57.49" y="292.14" width="3.74" height="10.01"/><rect x="47.91" y="292.14" width="3.74" height="10.01"/><rect x="38.33" y="292.14" width="3.74" height="10.01"/><rect x="28.74" y="292.14" width="3.74" height="10.01"/><rect x="19.16" y="292.14" width="3.74" height="17.51"/><rect x="9.58" y="292.14" width="3.74" height="10.01"/><rect y="292.14" width="3.74" height="10.01"/><rect y="292.14" width="3.74" height="10.01"/><rect x="124.58" y="292.14" width="3.74" height="10.01"/><rect x="153.33" y="292.14" width="3.74" height="10.01"/><rect x="172.49" y="292.14" width="3.74" height="10.01"/><rect x="191.66" y="292.14" width="3.74" height="10.01"/><rect x="182.08" y="292.14" width="3.74" height="10.01"/><rect x="297.08" y="292.14" width="3.74" height="10.01"/><rect x="287.49" y="292.14" width="3.74" height="10.01"/><rect x="277.91" y="292.14" width="3.74" height="10.01"/><rect x="268.33" y="292.14" width="3.74" height="10.01"/><rect x="258.74" y="292.14" width="3.74" height="17.51"/><rect x="249.16" y="292.14" width="3.74" height="10.01"/><rect x="239.58" y="292.14" width="3.74" height="10.01"/><rect x="229.99" y="292.14" width="3.74" height="10.01"/><rect x="220.41" y="292.14" width="3.74" height="10.01"/><rect x="210.82" y="292.14" width="3.74" height="17.51"/><rect x="201.24" y="292.14" width="3.74" height="10.01"/><rect x="766.64" y="292.14" width="3.74" height="10.01"/><rect x="795.39" y="292.14" width="3.74" height="10.01"/><rect x="814.55" y="292.14" width="3.74" height="10.01"/><rect x="833.72" y="292.14" width="3.74" height="17.51"/><rect x="824.14" y="292.14" width="3.74" height="10.01"/><rect x="977.47" y="292.14" width="3.74" height="17.51"/><rect x="967.89" y="292.14" width="3.74" height="10.01"/><rect x="958.3" y="292.14" width="3.74" height="10.01"/><rect x="948.72" y="292.14" width="3.74" height="10.01"/><rect x="939.14" y="292.14" width="3.74" height="10.01"/><rect x="929.55" y="292.14" width="3.74" height="17.51"/><rect x="919.97" y="292.14" width="3.74" height="10.01"/><rect x="910.39" y="292.14" width="3.74" height="10.01"/><rect x="900.8" y="292.14" width="3.74" height="10.01"/><rect x="891.22" y="292.14" width="3.74" height="10.01"/><rect x="881.63" y="292.14" width="3.74" height="17.51"/><rect x="872.05" y="292.14" width="3.74" height="10.01"/><rect x="862.47" y="292.14" width="3.74" height="10.01"/><rect x="852.89" y="292.14" width="3.74" height="10.01"/><rect x="843.31" y="292.14" width="3.74" height="10.01"/><rect x="1159.59" y="292.14" width="3.74" height="10.01"/><rect x="1169.18" y="292.14" width="3.74" height="17.51"/><rect x="1188.35" y="292.14" width="3.74" height="10.01"/><rect x="1140.43" y="292.14" width="3.74" height="10.01"/><rect x="1130.85" y="292.14" width="3.74" height="10.01"/><rect x="1121.26" y="292.14" width="3.74" height="17.51"/><rect x="1111.68" y="292.14" width="3.74" height="10.01"/><rect x="1102.09" y="292.14" width="3.74" height="10.01"/><rect x="1092.51" y="292.14" width="3.74" height="10.01"/><rect x="1082.93" y="292.14" width="3.74" height="10.01"/><rect x="1073.35" y="292.14" width="3.74" height="17.51"/><rect x="1063.76" y="292.14" width="3.74" height="10.01"/><rect x="1054.18" y="292.14" width="3.74" height="10.01"/><rect x="1044.6" y="292.14" width="3.74" height="10.01"/><rect x="1035.01" y="292.14" width="3.74" height="10.01"/><rect x="1025.43" y="292.14" width="3.74" height="17.51"/><rect x="1015.85" y="292.14" width="3.74" height="10.01"/><rect x="1006.26" y="292.14" width="3.74" height="10.01"/><rect x="996.68" y="292.14" width="3.74" height="10.01"/><rect x="987.1" y="292.14" width="3.74" height="10.01"/><rect x="1150.01" y="292.14" width="3.74" height="10.01"/><rect x="1178.76" y="292.14" width="3.74" height="10.01"/><rect x="1197.93" y="292.14" width="3.74" height="10.01"/><rect x="1217.09" y="292.14" width="3.74" height="17.51"/><rect x="1207.51" y="292.14" width="3.74" height="10.01"/><rect x="1360.84" y="292.14" width="3.74" height="17.51"/><rect x="1351.26" y="292.14" width="3.74" height="10.01"/><rect x="1341.68" y="292.14" width="3.74" height="10.01"/><rect x="1332.1" y="292.14" width="3.74" height="10.01"/><rect x="1322.51" y="292.14" width="3.74" height="10.01"/><rect x="1312.93" y="292.14" width="3.74" height="17.51"/><rect x="1303.34" y="292.14" width="3.74" height="10.01"/><rect x="1293.76" y="292.14" width="3.74" height="10.01"/><rect x="1284.18" y="292.14" width="3.74" height="10.01"/><rect x="1274.6" y="292.14" width="3.74" height="10.01"/><rect x="1265.01" y="292.14" width="3.74" height="17.51"/><rect x="1255.43" y="292.14" width="3.74" height="10.01"/><rect x="1245.85" y="292.14" width="3.74" height="10.01"/><rect x="1236.26" y="292.14" width="3.74" height="10.01"/><rect x="1226.68" y="292.14" width="3.74" height="10.01"/><rect x="1159.59" y="292.14" width="3.74" height="10.01"/><rect x="1169.18" y="292.14" width="3.74" height="17.51"/><rect x="1188.35" y="292.14" width="3.74" height="10.01"/><rect x="1140.43" y="292.14" width="3.74" height="10.01"/><rect x="1130.85" y="292.14" width="3.74" height="10.01"/><rect x="1121.26" y="292.14" width="3.74" height="17.51"/><rect x="1111.68" y="292.14" width="3.74" height="10.01"/><rect x="1102.09" y="292.14" width="3.74" height="10.01"/><rect x="1092.51" y="292.14" width="3.74" height="10.01"/><rect x="1082.93" y="292.14" width="3.74" height="10.01"/><rect x="1073.35" y="292.14" width="3.74" height="17.51"/><rect x="1063.76" y="292.14" width="3.74" height="10.01"/><rect x="1054.18" y="292.14" width="3.74" height="10.01"/><rect x="1044.6" y="292.14" width="3.74" height="10.01"/><rect x="1035.01" y="292.14" width="3.74" height="10.01"/><rect x="1025.43" y="292.14" width="3.74" height="17.51"/><rect x="1015.85" y="292.14" width="3.74" height="10.01"/><rect x="1006.26" y="292.14" width="3.74" height="10.01"/><rect x="996.68" y="292.14" width="3.74" height="10.01"/><rect x="987.1" y="292.14" width="3.74" height="10.01"/><rect x="1150.01" y="292.14" width="3.74" height="10.01"/><rect x="1178.76" y="292.14" width="3.74" height="10.01"/><rect x="1197.93" y="292.14" width="3.74" height="10.01"/><rect x="1217.09" y="292.14" width="3.74" height="17.51"/><rect x="1207.51" y="292.14" width="3.74" height="10.01"/><rect x="1360.84" y="292.14" width="3.74" height="17.51"/><rect x="1351.26" y="292.14" width="3.74" height="10.01"/><rect x="1341.68" y="292.14" width="3.74" height="10.01"/><rect x="1380.01" y="292.14" width="3.74" height="10.01"/><rect x="1370.43" y="292.14" width="3.74" height="10.01"/><rect x="1332.1" y="292.14" width="3.74" height="10.01"/><rect x="1322.51" y="292.14" width="3.74" height="10.01"/><rect x="1312.93" y="292.14" width="3.74" height="17.51"/><rect x="1303.34" y="292.14" width="3.74" height="10.01"/><rect x="1293.76" y="292.14" width="3.74" height="10.01"/><rect x="1284.18" y="292.14" width="3.74" height="10.01"/><rect x="1274.6" y="292.14" width="3.74" height="10.01"/><rect x="1265.01" y="292.14" width="3.74" height="17.51"/><rect x="1255.43" y="292.14" width="3.74" height="10.01"/><rect x="1245.85" y="292.14" width="3.74" height="10.01"/><rect x="1236.26" y="292.14" width="3.74" height="10.01"/><rect x="1226.68" y="292.14" width="3.74" height="10.01"/><path d="M695.23,317.11a7.85,7.85,0,0,1-.8,4,3,3,0,0,1-4.93,0,10.55,10.55,0,0,1,0-8,2.69,2.69,0,0,1,2.46-1.27,2.67,2.67,0,0,1,2.47,1.32A7.93,7.93,0,0,1,695.23,317.11Zm-1.75,3.1a5,5,0,0,0,.28-1.28,20.27,20.27,0,0,0,0-3.64,4.89,4.89,0,0,0-.29-1.29,1.77,1.77,0,0,0-.56-.79,1.51,1.51,0,0,0-.93-.27,1.53,1.53,0,0,0-.93.27,1.79,1.79,0,0,0-.58.8,4.86,4.86,0,0,0-.28,1.31q-.07.79-.08,1.79t.06,1.78a4.79,4.79,0,0,0,.28,1.29,1.79,1.79,0,0,0,.56.81,1.75,1.75,0,0,0,1.89,0A1.74,1.74,0,0,0,693.48,320.21Z"/><path d="M592.35,318.53h-4.54v-1.11h4.54Z"/><path d="M597.46,312.39v9.81H596.3v-8.45l-2.25.91v-1.15l2.89-1.12Z"/><path d="M788.85,312.39v9.81h-1.16v-8.45l-2.25.91v-1.15l2.89-1.12Z"/><path d="M887,322.2h-7.35v-.84l2.84-2.48c2.38-2.09,3.08-2.69,3.08-3.7s-.85-1.83-2.21-1.83a2.34,2.34,0,0,0-2.45,2.06h-1.18a3.52,3.52,0,0,1,3.68-3.17c2,0,3.32,1.26,3.32,2.9,0,1.46-1,2.35-3.29,4.31l-1.88,1.63H887Z"/><path d="M982.91,319.45c0,1.79-1.44,2.9-3.5,2.9s-3.54-1-3.84-3h1.18a2.4,2.4,0,0,0,2.65,1.85c1.46,0,2.34-.73,2.34-1.88,0-1-.59-1.72-2.18-1.72h-1.36v-1h1c1.48,0,2.2-.56,2.2-1.51s-.88-1.76-2.17-1.76a2.12,2.12,0,0,0-2.34,1.72h-1.18a3.27,3.27,0,0,1,3.54-2.83c1.88,0,3.32,1.11,3.32,2.73a2.1,2.1,0,0,1-1.41,2.06A2.41,2.41,0,0,1,982.91,319.45Z"/><path d="M1078.92,319.84h-1.44v2.35h-1.16v-2.35h-5.25v-1.09l4.68-6.36h1.74v6.36h1.44Zm-2.61-1.09v-5.27h-.11l-3.85,5.25Z"/><path d="M1174.76,318.95a3.39,3.39,0,0,1-3.57,3.4,3.59,3.59,0,0,1-3.81-3.05h1.18a2.51,2.51,0,0,0,2.63,1.95,2.28,2.28,0,0,0,2.39-2.3,2.21,2.21,0,0,0-2.38-2.24,2.53,2.53,0,0,0-2.33,1.27h-1.12l1.19-5.59h5.35v1.11h-4.47l-.64,3.05a3.37,3.37,0,0,1,5.58,2.4Z"/><path d="M1270.46,318.86a3.67,3.67,0,0,1-7.33,0c0-1.71,1-3.05,3.57-6.43h1.36l-2.79,3.73a3.57,3.57,0,0,1,1.83-.52A3.18,3.18,0,0,1,1270.46,318.86Zm-1.16,0a2.5,2.5,0,1,0-2.51,2.38A2.36,2.36,0,0,0,1269.3,318.86Z"/><path d="M1365.87,312.39v.88l-4.4,8.92h-1.32l4.34-8.68h-5.31v-1.12Z"/><path d="M494.46,318.53h-4.54v-1.11h4.54Z"/><path d="M503.64,322.2h-7.35v-.84l2.84-2.48c2.38-2.09,3.08-2.69,3.08-3.7s-.85-1.83-2.21-1.83a2.34,2.34,0,0,0-2.45,2.06h-1.18a3.52,3.52,0,0,1,3.68-3.17c2,0,3.32,1.26,3.32,2.9,0,1.46-1,2.35-3.29,4.31l-1.88,1.63h5.44Z"/><path d="M399.14,318.53h-4.54v-1.11h4.54Z"/><path d="M408.32,319.45c0,1.79-1.44,2.9-3.5,2.9s-3.54-1-3.84-3h1.18a2.4,2.4,0,0,0,2.65,1.85c1.46,0,2.34-.73,2.34-1.88,0-1-.59-1.72-2.18-1.72H403.6v-1h1c1.48,0,2.2-.56,2.2-1.51s-.88-1.76-2.17-1.76a2.12,2.12,0,0,0-2.34,1.72h-1.18a3.27,3.27,0,0,1,3.54-2.83c1.88,0,3.32,1.11,3.32,2.73a2.1,2.1,0,0,1-1.41,2.06A2.41,2.41,0,0,1,408.32,319.45Z"/><path d="M301.74,318.53H297.2v-1.11h4.54Z"/><path d="M311.29,319.84h-1.44v2.35h-1.16v-2.35h-5.25v-1.09l4.68-6.36h1.74v6.36h1.44Zm-2.61-1.09v-5.27h-.11l-3.85,5.25Z"/><path d="M206.76,318.53h-4.54v-1.11h4.54Z"/><path d="M216,318.95a3.39,3.39,0,0,1-3.57,3.4,3.59,3.59,0,0,1-3.81-3.05h1.18a2.51,2.51,0,0,0,2.63,1.95,2.28,2.28,0,0,0,2.39-2.3,2.21,2.21,0,0,0-2.38-2.24,2.53,2.53,0,0,0-2.33,1.27H209l1.19-5.59h5.35v1.11H211l-.64,3.05a3.37,3.37,0,0,1,5.58,2.4Z"/><path d="M111.2,318.53h-4.54v-1.11h4.54Z"/><path d="M120.35,318.86a3.67,3.67,0,0,1-7.33,0c0-1.71,1-3.05,3.57-6.43H118l-2.79,3.73a3.57,3.57,0,0,1,1.83-.52A3.18,3.18,0,0,1,120.35,318.86Zm-1.16,0a2.5,2.5,0,1,0-2.51,2.38A2.36,2.36,0,0,0,119.19,318.86Z"/><path d="M15.93,318.53H11.39v-1.11h4.54Z"/><path d="M24.3,312.39v.88l-4.4,8.92H18.58l4.34-8.68H17.62v-1.12Z"/></g></g></svg>