<svg xmlns="http://www.w3.org/2000/svg" viewBox="0 0 149.37 44.81"><defs><style>.cls-1{fill:#fc1114;}.cls-2{fill:#fff;}.cls-3{isolation:isolate;}</style></defs><title>logobhead</title><g id="Слой_2" data-name="Слой 2"><g id="Слой_1-2" data-name="Слой 1"><g id="Layer_19" data-name="Layer 19"><polygon class="cls-1" points="9.94 0.33 9.94 4.39 12.31 4.39 12.31 28.46 16.76 28.46 16.76 4.39 16.76 0.91 16.76 0.33 9.94 0.33"/></g><g id="Layer_18" data-name="Layer 18"><polygon class="cls-1" points="0 0.33 0 4.39 2.37 4.39 2.37 28.46 6.82 28.46 6.82 4.39 6.82 0.91 6.82 0.33 0 0.33"/></g><g id="Layer_16" data-name="Layer 16"><polygon class="cls-2" points="35.01 0.19 35.01 4.25 44.5 4.25 44.5 28.32 49.25 28.32 49.25 4.25 59.04 4.25 59.04 0.19 35.01 0.19"/></g><g id="Layer_15" data-name="Layer 15"><rect class="cls-2" x="114.22" y="0.19" width="4.45" height="28.13"/></g><path class="cls-2" d="M134.53.19a14.23,14.23,0,0,0-14.39,14.07,14.39,14.39,0,0,0,28.78,0A14.23,14.23,0,0,0,134.54.19Zm0,24.65a10.71,10.71,0,0,1-10.83-10.58,10.83,10.83,0,0,1,21.66,0h0A10.71,10.71,0,0,1,134.53,24.84Z"/><g id="Layer_13" data-name="Layer 13"><path class="cls-2" d="M84.85,17.46V.19H81V15.27c0,8.41-3.41,9.57-8.9,9.57s-8.31-2.32-8.31-9.57V.19H60.23V18.46c0,5.61,5.51,10.15,12.31,10.15s12.31-4.06,12.31-10.15"/></g><g id="Layer_12" data-name="Layer 12"><path class="cls-2" d="M98.35.19H86.63V28.32H98.35a14.23,14.23,0,0,0,14.39-14.07A14.23,14.23,0,0,0,98.35.19ZM97,24.66H90.78V4H97c6.55,0,11.86,4.63,11.86,10.35S103.57,24.66,97,24.66Z"/></g><g id="Layer_11" data-name="Layer 11"><path class="cls-2" d="M33.67,2.07C27.74-2,18.54,0,18.54,7c0,4.93,2.73,6.38,5.93,8.12,2.67,1.45,6.23,3.48,6.23,6.38,0,2.61-2.92,3.37-4.9,3.34-3.79-.07-7.27-3.92-7.27-3.92v4.93a10.68,10.68,0,0,0,11.87,2,6.75,6.75,0,0,0,4.15-6.67c-.15-3.92-1.48-5.8-5.64-8.12C26.89,12,22.4,10.48,22.4,7c0-1.74,1.78-3.48,4.45-3.48C30.11,3.52,33.67,7,33.67,7Z"/></g><g id="Layer_10" data-name="Layer 10"><rect class="cls-2" x="34.44" y="35.57" width="0.89" height="2.32"/><rect class="cls-2" x="36.72" y="35.57" width="0.89" height="2.32"/><rect class="cls-2" x="41.29" y="35.57" width="0.89" height="4.06"/><rect class="cls-2" x="29.88" y="35.57" width="0.89" height="4.06"/><rect class="cls-2" x="27.6" y="35.57" width="0.89" height="2.32"/><rect class="cls-2" x="25.32" y="35.57" width="0.89" height="2.32"/><rect class="cls-2" x="23.04" y="35.57" width="0.89" height="2.32"/><rect class="cls-2" x="20.76" y="35.57" width="0.89" height="2.32"/><rect class="cls-2" x="18.48" y="35.57" width="0.89" height="4.06"/><rect class="cls-2" x="16.2" y="35.57" width="0.89" height="2.32"/><rect class="cls-2" x="13.92" y="35.57" width="0.89" height="2.32"/><rect class="cls-2" x="11.64" y="35.57" width="0.89" height="2.32"/><rect class="cls-2" x="9.36" y="35.57" width="0.89" height="2.32"/><rect class="cls-2" x="7.08" y="35.57" width="0.89" height="4.06"/><rect class="cls-2" x="4.79" y="35.57" width="0.89" height="2.32"/><rect class="cls-2" x="2.51" y="35.57" width="0.89" height="2.32"/><rect class="cls-2" x="32.16" y="35.57" width="0.89" height="2.32"/><rect class="cls-2" x="39.01" y="35.57" width="0.89" height="2.32"/><rect class="cls-2" x="43.57" y="35.57" width="0.89" height="2.32"/><rect class="cls-2" x="48.13" y="35.57" width="0.89" height="2.32"/><rect class="cls-2" x="96.02" y="35.57" width="0.89" height="2.32"/><rect class="cls-2" x="98.3" y="35.57" width="0.89" height="4.06"/><rect class="cls-2" x="102.87" y="35.57" width="0.89" height="2.32"/><rect class="cls-2" x="45.85" y="35.57" width="0.89" height="2.32"/><rect class="cls-2" x="91.46" y="35.57" width="0.89" height="2.32"/><rect class="cls-2" x="89.18" y="35.57" width="0.89" height="2.32"/><rect class="cls-2" x="86.9" y="35.57" width="0.89" height="4.06"/><rect class="cls-2" x="84.62" y="35.57" width="0.89" height="2.32"/><rect class="cls-2" x="82.34" y="35.57" width="0.89" height="2.32"/><rect class="cls-2" x="80.06" y="35.57" width="0.89" height="2.32"/><rect class="cls-2" x="77.78" y="35.57" width="0.89" height="2.32"/><rect class="cls-2" x="75.5" y="35.57" width="0.89" height="4.06"/><rect class="cls-2" x="73.22" y="35.57" width="0.89" height="2.32"/><rect class="cls-2" x="70.94" y="35.57" width="0.89" height="2.32"/><rect class="cls-2" x="68.66" y="35.57" width="0.89" height="2.32"/><rect class="cls-2" x="66.37" y="35.57" width="0.89" height="2.32"/><rect class="cls-2" x="64.09" y="35.57" width="0.89" height="4.06"/><rect class="cls-2" x="61.81" y="35.57" width="0.89" height="2.32"/><rect class="cls-2" x="59.53" y="35.57" width="0.89" height="2.32"/><rect class="cls-2" x="57.25" y="35.57" width="0.89" height="2.32"/><rect class="cls-2" x="54.97" y="35.57" width="0.89" height="2.32"/><rect class="cls-2" x="52.69" y="35.57" width="0.89" height="4.06"/><rect class="cls-2" x="50.41" y="35.57" width="0.89" height="2.32"/><rect class="cls-2" x="93.74" y="35.57" width="0.89" height="2.32"/><rect class="cls-2" x="100.58" y="35.57" width="0.89" height="2.32"/><rect class="cls-2" x="105.15" y="35.57" width="0.89" height="2.32"/><rect class="cls-2" x="109.71" y="35.57" width="0.89" height="4.06"/><rect class="cls-2" x="107.43" y="35.57" width="0.89" height="2.32"/><rect class="cls-2" x="148.48" y="35.57" width="0.89" height="2.32"/><rect class="cls-2" x="146.2" y="35.57" width="0.89" height="2.32"/><rect class="cls-2" x="143.92" y="35.57" width="0.89" height="4.06"/><rect class="cls-2" x="141.64" y="35.57" width="0.89" height="2.32"/><rect class="cls-2" x="139.36" y="35.57" width="0.89" height="2.32"/><rect class="cls-2" x="137.08" y="35.57" width="0.89" height="2.32"/><rect class="cls-2" x="134.8" y="35.57" width="0.89" height="2.32"/><rect class="cls-2" x="132.52" y="35.57" width="0.89" height="4.06"/><rect class="cls-2" x="130.23" y="35.57" width="0.89" height="2.32"/><rect class="cls-2" x="127.95" y="35.57" width="0.89" height="2.32"/><rect class="cls-2" x="125.67" y="35.57" width="0.89" height="2.32"/><rect class="cls-2" x="123.39" y="35.57" width="0.89" height="2.32"/><rect class="cls-2" x="121.11" y="35.57" width="0.89" height="4.06"/><rect class="cls-2" x="118.83" y="35.57" width="0.89" height="2.32"/><rect class="cls-2" x="116.55" y="35.57" width="0.89" height="2.32"/><rect class="cls-2" x="114.27" y="35.57" width="0.89" height="2.32"/><rect class="cls-2" x="111.99" y="35.57" width="0.89" height="2.32"/></g><g id="Layer_9" data-name="Layer 9"><g class="cls-3"><path class="cls-2" d="M76.72,41.63a1.09,1.09,0,0,1-.21.73.81.81,0,0,1-1.18,0,1.08,1.08,0,0,1-.22-.73V41a1.09,1.09,0,0,1,.22-.73.81.81,0,0,1,1.18,0,1.09,1.09,0,0,1,.22.73ZM76.38,41a.81.81,0,0,0-.12-.48.45.45,0,0,0-.69,0,.82.82,0,0,0-.12.48v.72a.82.82,0,0,0,.12.48.4.4,0,0,0,.35.16.4.4,0,0,0,.34-.16.83.83,0,0,0,.12-.49Z"/></g></g><g id="Layer_8" data-name="Layer 8"><g class="cls-3"><path class="cls-2" d="M98.91,42.57h-.34V40.43H98v-.24l.86-.09Z"/></g></g><g id="Layer_7" data-name="Layer 7"><g class="cls-3"><path class="cls-2" d="M122.47,42.57h-1.64v-.23l.83-.9a2.28,2.28,0,0,0,.3-.39.6.6,0,0,0,.08-.29.46.46,0,0,0-.11-.31.37.37,0,0,0-.29-.13.51.51,0,0,0-.39.13.52.52,0,0,0-.12.37h-.33a.69.69,0,0,1,.22-.54.86.86,0,0,1,.63-.22.75.75,0,0,1,.54.19.66.66,0,0,1,.2.5.78.78,0,0,1-.12.41,2.61,2.61,0,0,1-.34.44l-.67.71h1.22Z"/></g></g><g id="Layer_6" data-name="Layer 6"><g class="cls-3"><path class="cls-2" d="M144,41.18h.3a.4.4,0,0,0,.32-.11.46.46,0,0,0,.09-.31.44.44,0,0,0-.11-.32.43.43,0,0,0-.32-.11.45.45,0,0,0-.32.11.4.4,0,0,0-.12.31h-.33a.59.59,0,0,1,.21-.48.81.81,0,0,1,.57-.2.82.82,0,0,1,.56.18.66.66,0,0,1,.21.52.57.57,0,0,1-.09.31.59.59,0,0,1-.28.23.56.56,0,0,1,.32.23.72.72,0,0,1-.13.88.86.86,0,0,1-.58.19.88.88,0,0,1-.57-.18.58.58,0,0,1-.22-.5h.33a.4.4,0,0,0,.12.31.47.47,0,0,0,.34.12.48.48,0,0,0,.34-.12.44.44,0,0,0,.12-.34.46.46,0,0,0-.11-.34.48.48,0,0,0-.35-.11H144Z"/></g></g><g id="Layer_5" data-name="Layer 5"><g class="cls-3"><path class="cls-2" d="M51.61,41.66h-.85V41.4h.85Z"/><path class="cls-2" d="M52.86,42.57h-.34V40.43H52v-.24l.86-.09Z"/></g></g><g id="Layer_4" data-name="Layer 4"><g class="cls-3"><path class="cls-2" d="M28.71,41.66h-.85V41.4h.85Z"/><path class="cls-2" d="M30.62,42.57H29v-.23l.83-.9a2.28,2.28,0,0,0,.3-.39.6.6,0,0,0,.08-.29.46.46,0,0,0-.11-.31.37.37,0,0,0-.29-.13.51.51,0,0,0-.39.13.52.52,0,0,0-.12.37h-.33a.69.69,0,0,1,.22-.54.86.86,0,0,1,.63-.22.75.75,0,0,1,.54.19.66.66,0,0,1,.2.5.78.78,0,0,1-.12.41,2.61,2.61,0,0,1-.34.44l-.67.71h1.22Z"/></g></g><g id="Layer_3" data-name="Layer 3"><g class="cls-3"><path class="cls-2" d="M5.77,41.66H4.92V41.4h.85Z"/><path class="cls-2" d="M6.51,41.18h.3a.4.4,0,0,0,.32-.11.46.46,0,0,0,.09-.31.44.44,0,0,0-.11-.32.43.43,0,0,0-.32-.11.45.45,0,0,0-.32.11.4.4,0,0,0-.12.31H6a.59.59,0,0,1,.21-.48.81.81,0,0,1,.57-.2.82.82,0,0,1,.56.18.66.66,0,0,1,.21.52.57.57,0,0,1-.09.31.59.59,0,0,1-.28.23.56.56,0,0,1,.32.23.72.72,0,0,1-.13.88.86.86,0,0,1-.58.19.88.88,0,0,1-.57-.18.58.58,0,0,1-.22-.5h.33a.4.4,0,0,0,.12.31.47.47,0,0,0,.34.12.48.48,0,0,0,.34-.12.44.44,0,0,0,.12-.34.46.46,0,0,0-.11-.34.48.48,0,0,0-.35-.11h-.3Z"/></g></g><g id="Layer_2" data-name="Layer 2"><polygon class="cls-2" points="75.94 42.99 74.86 44.81 77.01 44.81 75.94 42.99"/></g></g></g></svg>