<?xml version="1.0" standalone="no"?>
<!DOCTYPE svg PUBLIC "-//W3C//DTD SVG 20010904//EN"
 "http://www.w3.org/TR/2001/REC-SVG-20010904/DTD/svg10.dtd">
<svg version="1.0" xmlns="http://www.w3.org/2000/svg"
 width="799.000000pt" height="799.000000pt" viewBox="0 0 799.000000 799.000000"
 preserveAspectRatio="xMidYMid meet">
<metadata>
Created by potrace 1.11, written by Peter Selinger 2001-2013
</metadata>
<g transform="translate(0.000000,799.000000) scale(0.100000,-0.100000)"
fill="#000000" stroke="none">
<path d="M3847 7984 c-1 -1 -54 -5 -117 -8 -64 -4 -127 -8 -140 -10 -24 -4
-117 -15 -170 -21 -14 -1 -38 -5 -55 -8 -16 -4 -46 -9 -65 -12 -19 -3 -66 -13
-105 -21 -38 -8 -81 -17 -95 -20 -14 -3 -59 -14 -100 -25 -41 -11 -83 -22 -93
-24 -66 -15 -331 -107 -437 -152 -19 -8 -44 -19 -55 -23 -107 -45 -383 -186
-470 -241 -54 -33 -312 -205 -326 -217 -8 -6 -75 -61 -149 -121 -126 -102
-332 -297 -443 -420 -282 -311 -560 -752 -712 -1129 -26 -64 -51 -126 -56
-137 -39 -91 -142 -437 -163 -550 -24 -126 -56 -320 -62 -370 -3 -33 -8 -73
-10 -90 -9 -77 -17 -274 -17 -405 1 -824 256 -1623 735 -2300 223 -316 571
-670 881 -898 96 -71 231 -163 257 -175 8 -4 56 -32 105 -63 110 -67 396 -209
525 -259 270 -106 584 -194 820 -230 25 -4 54 -9 65 -12 11 -2 43 -6 70 -9 28
-3 61 -7 74 -9 116 -20 659 -28 811 -12 41 5 93 10 115 12 38 4 171 24 206 30
9 2 33 6 53 9 19 3 57 11 83 17 27 6 59 13 73 15 54 11 219 55 295 79 44 15
87 28 95 30 26 6 196 71 310 120 108 46 380 182 401 201 8 8 18 14 22 14 33 0
446 290 576 405 164 144 338 316 426 420 28 33 58 69 69 80 47 52 222 293 297
410 97 152 248 442 315 605 98 239 202 589 234 785 5 33 12 69 14 80 2 11 7
40 11 65 3 25 8 57 11 71 35 225 40 805 9 989 -3 14 -7 48 -10 75 -15 125 -51
305 -95 475 -16 63 -32 123 -34 133 -18 68 -106 311 -155 425 -77 179 -190
399 -269 522 -201 314 -321 467 -552 703 -168 172 -413 382 -570 487 -12 8
-33 23 -45 33 -13 9 -28 17 -33 17 -6 0 -12 4 -14 8 -9 23 -529 312 -561 312
-2 0 -26 10 -53 22 -27 12 -51 23 -54 23 -3 1 -23 9 -45 19 -81 35 -364 126
-500 160 -142 36 -374 80 -481 91 -32 3 -75 8 -94 11 -85 12 -544 27 -553 18z"/>
</g>
</svg>
